<?xml version="1.0" encoding="UTF-8" standalone="no"?>
<!-- Created with Inkscape (http://www.inkscape.org/) -->

<svg
   width="210mm"
   height="297mm"
   viewBox="0 0 210 297"
   version="1.1"
   id="svg1"
   xml:space="preserve"
   xmlns="http://www.w3.org/2000/svg"
   xmlns:svg="http://www.w3.org/2000/svg"><defs
     id="defs1" /><g
     id="layer2"><path
       style="fill-opacity:1;stroke-width:0.264583"
       d="m 104.81018,151.58766 c 6.57097,4.35896 -8.652859,31.29341 -8.652859,31.29341 0,0 16.915359,-8.91309 28.235639,-25.56821 11.32028,-16.65513 2.79754,-18.08643 -16.13465,-16.98042 28.88623,-18.67196 37.2138,-50.941262 37.2138,-50.941262 0,0 -29.01635,31.098242 -42.939,37.864382 -7.765452,4.40708 -21.934597,-21.355 -21.934597,-21.355 0,0 0.460037,13.24907 7.54461,36.98699 -23.461896,26.77416 -40.575279,59.16078 -40.575279,59.16078 0,0 54.127796,-52.70944 57.242336,-50.46067 z"
       id="path6" /><ellipse
       style="fill-opacity:1;stroke-width:0.264583"
       id="path7"
       cx="102.59818"
       cy="106.0463"
       rx="8.392621"
       ry="8.8480349" /><path
       style="fill-opacity:1;stroke-width:0.264583"
       d="m 44.738615,99.195516 c -2.070166,1.242104 -1.184595,3.289264 -1.184595,3.289264 l 11.95764,29.40624 c 1.095914,2.11781 3.235087,0.64569 3.235087,0.64569 l 17.803439,-8.44168 c 1.403113,-0.82807 0.667054,-2.4612 0.667054,-2.4612 L 65.325279,91.754415 C 64.589219,90.052277 62.49605,90.788337 62.49605,90.788337 Z"
       id="path8" /><path
       d="m 72.481364,100.11689 c -0.374344,-0.005 -0.814643,0.10262 -1.322917,0.39946 l 5.009514,10.24691 c 0,0 2.146794,-1.51275 1.073319,-3.31814 l -3.10627,-6.27817 c 0,0 -0.530614,-1.03405 -1.653646,-1.05006 z"
       style="stroke-width:0.264583"
       id="path12" /><path
       style="fill-opacity:1;stroke-width:0.264583"
       d="m 74.794087,107.86552 c 0.487945,1.00842 -1.089739,1.51263 -1.089739,1.51263 l -1.423168,0.4798 1.000284,2.51291 2.919526,-1.62647"
       id="path10" /><path
       style="fill-opacity:1;stroke-width:0.264583"
       d="m 72.551643,103.33839 c -0.388607,-0.80201 -2.678906,0.58705 -2.678906,0.58705 l -0.959115,-2.43086 2.389518,-1.0418"
       id="path11" /><path
       style="fill-opacity:1;stroke-width:0.264583"
       d="m 67.270312,135.03672 2.943489,-1.71979 c 0,0 1.686719,5.92005 7.176823,13.49375 l -2.182812,2.74505 c 0,0 -6.019271,-7.37526 -7.9375,-14.51901 z"
       id="path13" /><path
       style="fill-opacity:1;stroke-width:0.264583"
       d="m 154.39789,134.37715 c -8.69513,25.02629 -28.19164,30.25983 -28.19164,30.25983 l 3.70417,-5.49011 c 0,0 10.31066,-3.28079 17.40352,-17.59858 7.09286,-14.3178 8.88291,-23.26148 2.29839,-43.027427 l 2.27748,-2.472293 c 0,0 4.55995,7.33834 5.0695,18.71718 l 3.86598,-0.0529 c 0,0 5.03462,2.57262 0.79558,6.10133 -0.27608,-0.0882 -4.72942,-0.13227 -4.72942,-0.13227 0,0 0.63791,6.32064 -2.49356,13.69524 z"
       id="path14" /><path
       style="fill-opacity:1;stroke-width:0.264583"
       d="m 107.81642,68.410692 c -20.612112,1.025433 -32.569347,17.88716 -32.83706,17.8351 l 2.02413,3.11716 c 0,0 13.121771,-16.666625 30.40573,-17.535189 0,0 14.98979,-2.620568 30.20356,10.484475 l 2.64932,-2.154337 v 0 c 0,0 -9.52807,-11.139421 -26.68155,-11.721296 l -0.0851,-5.046182 c 0,0 -2.34974,-4.03202 -5.52168,-0.138109"
       id="path15" /></g></svg>
